<?xml version="1.0" encoding="UTF-8" standalone="no"?>
<!-- Created with Inkscape (http://www.inkscape.org/) -->

<svg
   xmlns:dc="http://purl.org/dc/elements/1.1/"
   xmlns:cc="http://creativecommons.org/ns#"
   xmlns:rdf="http://www.w3.org/1999/02/22-rdf-syntax-ns#"
   xmlns:svg="http://www.w3.org/2000/svg"
   xmlns="http://www.w3.org/2000/svg"
   xmlns:sodipodi="http://sodipodi.sourceforge.net/DTD/sodipodi-0.dtd"
   xmlns:inkscape="http://www.inkscape.org/namespaces/inkscape"
   width="316.98074mm"
   height="120.01999mm"
   viewBox="0 0 316.98074 120.01999"
   version="1.1"
   id="svg8"
   inkscape:version="0.92.4 (5da689c313, 2019-01-14)"
   sodipodi:docname="great.svg">
  <defs
     id="defs2" />
  <sodipodi:namedview
     id="base"
     pagecolor="#ffffff"
     bordercolor="#666666"
     borderopacity="1.0"
     inkscape:pageopacity="0.0"
     inkscape:pageshadow="2"
     inkscape:zoom="3.959798"
     inkscape:cx="669.95506"
     inkscape:cy="115.66778"
     inkscape:document-units="mm"
     inkscape:current-layer="layer1"
     showgrid="false"
     inkscape:window-width="1920"
     inkscape:window-height="1001"
     inkscape:window-x="-9"
     inkscape:window-y="-9"
     inkscape:window-maximized="1" />
  <metadata
     id="metadata5">
    <rdf:RDF>
      <cc:Work
         rdf:about="">
        <dc:format>image/svg+xml</dc:format>
        <dc:type
           rdf:resource="http://purl.org/dc/dcmitype/StillImage" />
        <dc:title />
      </cc:Work>
    </rdf:RDF>
  </metadata>
  <g
     inkscape:label="Layer 1"
     inkscape:groupmode="layer"
     id="layer1"
     transform="translate(367.89482,-54.860891)">
    <g
       aria-label="Cassie"
       style="font-style:normal;font-variant:normal;font-weight:normal;font-stretch:normal;font-size:129.33041382px;line-height:1.25;font-family:Arizonia;-inkscape-font-specification:Arizonia;letter-spacing:0px;word-spacing:0px;fill:#440055;fill-opacity:1;stroke:none;stroke-width:0.7;stroke-opacity:1;stroke-miterlimit:4;stroke-dasharray:none"
       id="text12">
      <path
         d="m -326.25043,98.833231 3.23326,0.517322 q 6.20786,0 18.36492,-5.431877 12.28639,-5.561208 22.5035,-13.709024 10.2171,-8.147816 10.2171,-14.355676 0,-4.009243 -4.00924,-5.561208 -3.87992,-1.551965 -8.53581,-1.551965 -15.13166,0 -32.59127,8.665138 -17.4596,8.665138 -30.13398,20.434205 -17.07162,15.907644 -17.07162,30.263314 0,6.20786 3.10393,10.86376 3.10393,4.65589 8.27715,7.2425 9.69978,4.78523 21.72751,4.78523 5.43188,0 13.32103,-1.16398 13.70903,-2.45728 23.40881,-6.46652 9.82911,-4.00924 19.65822,-12.02773 0.51732,-0.25866 0.64665,-0.25866 0.64665,0 0.64665,0.64665 0,0.51733 -0.51732,1.29331 -9.69978,10.47576 -27.03005,17.20094 -17.33028,6.59585 -32.46194,6.59585 -19.39956,0 -29.09934,-11.38107 -5.30255,-6.33719 -5.30255,-15.26099 0,-17.33028 18.75291,-34.27256 14.09702,-12.674381 33.88457,-21.85684 19.78755,-9.182459 36.85917,-9.182459 10.47576,0 16.29563,5.043886 3.36259,3.10393 3.36259,7.630494 0,6.33719 -6.46652,12.803711 -6.33719,6.33719 -15.39032,10.863755 -8.9238,4.526564 -17.97693,7.630494 -8.9238,2.974599 -12.54505,3.362589 -3.49192,0.25866 -5.43187,0.25866 -1.81063,0 -3.75059,-0.12933 -6.72518,-0.64665 -6.72518,-2.845267 0,-0.646652 0.77598,-0.646652 z"
         style="stroke-width:0.7;fill:#440055;fill-opacity:1;stroke:none;stroke-opacity:1;stroke-miterlimit:4;stroke-dasharray:none"
         id="path41"
         inkscape:connector-curvature="0" />
      <path
         d="m -230.44892,120.94873 q -1.42263,1.6813 -2.9746,3.62125 -1.42263,1.93996 -3.75058,5.30255 -2.19862,3.36259 -2.19862,5.69054 0,2.32795 1.93996,2.32795 2.06929,0 6.59585,-2.45728 9.05313,-5.17322 20.04621,-15.51965 1.29331,-1.29331 1.6813,-0.38799 0,0.12933 0,0.51732 0,0.38799 -0.51732,0.90531 -22.24483,20.95153 -32.33261,20.95153 -2.9746,0 -5.04388,-1.93996 -1.93996,-2.06928 -1.93996,-4.78522 0,-2.71594 2.32795,-8.27715 -5.81987,7.2425 -12.54505,11.25175 -6.59585,3.87991 -10.34643,3.87991 -3.75059,0 -6.46652,-2.19862 -2.58661,-2.32794 -2.58661,-5.69054 0,-9.57045 8.5358,-18.75291 6.46653,-6.85451 16.03698,-9.69978 4.2679,-1.42263 8.27714,-1.42263 4.13858,0 7.88916,2.32795 3.87991,2.19861 4.91455,5.30254 3.87992,0 5.56121,2.84527 0.25866,0.38799 0.25866,1.29331 0,0.90531 -1.03464,2.06928 -0.90531,1.16398 -2.32795,2.84527 z m -9.44112,-12.80371 q -2.71594,0 -6.46652,1.6813 -6.59585,2.84527 -12.54505,9.82911 -9.44112,11.12241 -9.44112,16.29563 0,2.71594 2.19862,2.71594 1.81062,0 5.9492,-2.32795 4.2679,-2.32795 11.12241,-9.18246 0.38799,-0.38799 2.9746,-2.84527 2.58661,-2.45727 4.39724,-4.2679 6.07852,-6.33719 6.07852,-9.05313 0,-2.84527 -4.2679,-2.84527 z"
         style="stroke-width:0.7;fill:#440055;fill-opacity:1;stroke:none;stroke-opacity:1;stroke-miterlimit:4;stroke-dasharray:none"
         id="path43"
         inkscape:connector-curvature="0" />
      <path
         d="m -223.02253,133.75244 q -0.12933,-0.12933 -0.12933,-0.38799 0,-0.25866 0.51732,-0.25866 0.38799,0 0.51732,0.51732 2.32795,5.17322 7.6305,5.17322 6.59585,0 11.5104,-6.46652 3.62126,-4.78523 6.3372,-9.95844 2.84526,-5.30255 4.65589,-8.40648 1.93996,-3.10393 5.81987,-6.98384 4.00924,-3.87991 7.2425,-4.78523 -0.77598,-0.38799 -2.58661,-0.38799 -1.81062,0 -6.85451,2.71594 -4.91455,2.58661 -9.82911,6.72518 -4.91456,4.00924 -10.60509,9.18246 -5.69054,5.17322 -6.85452,6.07853 -1.16397,0.90531 -1.42263,0 -0.25866,-0.90531 0.64665,-1.6813 3.36259,-2.84526 9.69978,-8.79446 6.33719,-6.07853 9.57045,-8.79447 3.36259,-2.84527 7.50117,-4.78523 4.13857,-2.06928 6.20786,-2.06928 5.17321,0 6.33719,1.81062 -3.36259,1.42264 -5.56121,7.50117 -2.06929,6.07853 -4.78523,14.09701 -2.5866,8.01849 -6.59585,12.54505 3.36259,-1.2933 10.34644,-5.9492 7.11317,-4.78522 12.54505,-10.34643 1.16397,-1.03464 1.68129,-0.25866 0,0.25866 0,0.64665 0,0.25866 -2.45728,2.71594 -2.45727,2.45728 -6.07853,5.56121 -3.49192,2.9746 -8.79446,6.72518 -10.99309,7.75982 -22.1155,7.75982 -10.99309,0 -14.09702,-9.44112 z"
         style="stroke-width:0.7;fill:#440055;fill-opacity:1;stroke:none;stroke-opacity:1;stroke-miterlimit:4;stroke-dasharray:none"
         id="path45"
         inkscape:connector-curvature="0" />
      <path
         d="m -183.36457,133.75244 q -0.12933,-0.12933 -0.12933,-0.38799 0,-0.25866 0.51732,-0.25866 0.38799,0 0.51732,0.51732 2.32795,5.17322 7.6305,5.17322 6.59585,0 11.5104,-6.46652 3.62126,-4.78523 6.33719,-9.95844 2.84527,-5.30255 4.6559,-8.40648 1.93996,-3.10393 5.81987,-6.98384 4.00924,-3.87991 7.2425,-4.78523 -0.77598,-0.38799 -2.58661,-0.38799 -1.81062,0 -6.85451,2.71594 -4.91456,2.58661 -9.82911,6.72518 -4.91456,4.00924 -10.60509,9.18246 -5.69054,5.17322 -6.85452,6.07853 -1.16397,0.90531 -1.42263,0 -0.25866,-0.90531 0.64665,-1.6813 3.36259,-2.84526 9.69978,-8.79446 6.33719,-6.07853 9.57045,-8.79447 3.36259,-2.84527 7.50117,-4.78523 4.13857,-2.06928 6.20786,-2.06928 5.17321,0 6.33719,1.81062 -3.36259,1.42264 -5.56121,7.50117 -2.06929,6.07853 -4.78523,14.09701 -2.5866,8.01849 -6.59585,12.54505 3.36259,-1.2933 10.34644,-5.9492 7.11317,-4.78522 12.54505,-10.34643 1.16397,-1.03464 1.68129,-0.25866 0,0.25866 0,0.64665 0,0.25866 -2.45728,2.71594 -2.45727,2.45728 -6.07853,5.56121 -3.49192,2.9746 -8.79446,6.72518 -10.99309,7.75982 -22.11551,7.75982 -10.99308,0 -14.09701,-9.44112 z"
         style="stroke-width:0.7;fill:#440055;fill-opacity:1;stroke:none;stroke-opacity:1;stroke-miterlimit:4;stroke-dasharray:none"
         id="path47"
         inkscape:connector-curvature="0" />
      <path
         d="m -110.0807,101.41984 q -1.42264,-1.16397 -1.16398,-3.362591 0.25866,-2.198617 2.32795,-4.655895 2.06929,-2.457278 5.56121,-2.457278 1.03464,0 2.19861,1.034643 1.163978,0.905313 0.90532,3.233261 -0.25866,2.198617 -2.06929,4.267903 -1.81062,1.939957 -4.13857,2.586607 -2.19862,0.51732 -3.62125,-0.64665 z m -1.6813,6.85451 q -5.30255,5.43188 -8.9238,13.83836 -3.49192,8.27714 -3.49192,11.63973 0,3.36259 2.58661,3.36259 2.71594,0 8.79447,-3.87991 6.20786,-3.87991 14.097013,-10.99308 1.681295,-1.55197 1.681295,0.38799 0,0.25866 -0.258661,0.51732 -6.207857,5.43188 -10.475767,8.9238 -4.2679,3.49192 -10.2171,6.72518 -5.81987,3.10393 -9.57045,3.10393 -4.65589,0 -6.98384,-2.06929 -2.19862,-2.06928 -2.19862,-4.52656 0,-4.6559 1.6813,-7.37184 1.68129,-2.71593 5.69053,-7.50116 -1.42263,1.16397 -4.52656,3.87991 -2.9746,2.71594 -4.13857,3.62125 -1.16398,0.90532 -1.16398,-0.51732 0,-0.90531 2.06929,-2.58661 2.06929,-1.68129 8.9238,-8.5358 6.98384,-6.85451 9.44112,-8.14782 2.58661,-1.2933 4.13857,-1.2933 1.6813,0 2.45728,0.51732 0.77598,0.38799 0.38799,0.90531 z"
         style="stroke-width:0.7;fill:#440055;fill-opacity:1;stroke:none;stroke-opacity:1;stroke-miterlimit:4;stroke-dasharray:none"
         id="path49"
         inkscape:connector-curvature="0" />
      <path
         d="m -70.960285,120.69007 q 6.854511,-3.75058 6.854511,-7.63049 0,-3.87992 -4.655894,-3.87992 -2.198617,0 -4.655895,1.16398 -5.431878,2.45728 -10.475764,8.53581 -6.20786,7.50116 -6.20786,13.96768 0,2.45728 1.293304,4.6559 1.422635,2.06928 4.914556,2.06928 6.07853,0 15.390319,-6.33719 9.31179,-6.46652 16.036972,-12.93304 1.551965,-1.55196 1.551965,-0.12933 0,0.90531 -0.775983,1.55196 -4.785225,4.39724 -6.46652,5.9492 -1.551965,1.42264 -6.337191,5.30255 -4.785225,3.75058 -7.759825,5.30255 -9.182459,4.78522 -15.64898,4.78522 -6.33719,0 -10.087772,-2.84527 -3.621248,-2.9746 -3.621248,-8.14781 0,-10.99309 9.829108,-18.88224 9.829111,-8.01849 20.563536,-8.01849 7.242503,0 9.699781,3.10393 1.034643,1.55197 1.034643,3.36259 0,1.6813 -1.163974,3.75058 -2.327947,4.00925 -8.794468,7.11318 -6.33719,2.9746 -12.027728,2.9746 -2.198617,0 -2.457278,-0.38799 -0.129331,-0.388 0.387991,-0.51733 0.517322,-0.25866 1.422635,-0.25866 5.173216,0 12.157059,-3.62125 z"
         style="stroke-width:0.7;fill:#440055;fill-opacity:1;stroke:none;stroke-opacity:1;stroke-miterlimit:4;stroke-dasharray:none"
         id="path51"
         inkscape:connector-curvature="0" />
    </g>
    <g
       aria-label="is rlly great"
       style="font-style:normal;font-variant:normal;font-weight:normal;font-stretch:normal;font-size:37.57481003px;line-height:1.25;font-family:Arizonia;-inkscape-font-specification:Arizonia;letter-spacing:0px;word-spacing:0px;fill:#440055;fill-opacity:1;stroke:#000000;stroke-width:0.7;stroke-opacity:1;stroke-miterlimit:4;stroke-dasharray:none"
       id="text16">
      <path
         d="m -284.86127,153.04994 q -0.41332,-0.33818 -0.33817,-0.97695 0.0752,-0.63877 0.67635,-1.35269 0.60119,-0.71392 1.61571,-0.71392 0.3006,0 0.63878,0.3006 0.33817,0.26302 0.26302,0.93937 -0.0752,0.63877 -0.6012,1.23996 -0.52604,0.56363 -1.20239,0.7515 -0.63877,0.1503 -1.0521,-0.18787 z m -0.48847,1.99146 q -1.54057,1.57814 -2.59266,4.02051 -1.01452,2.40478 -1.01452,3.38173 0,0.97694 0.7515,0.97694 0.78907,0 2.55508,-1.12724 1.80359,-1.12724 4.09566,-3.19386 0.48847,-0.4509 0.48847,0.11273 0,0.0752 -0.0752,0.15029 -1.80359,1.57815 -3.04356,2.59267 -1.23997,1.01452 -2.96841,1.95389 -1.69087,0.90179 -2.78054,0.90179 -1.35269,0 -2.02904,-0.60119 -0.63877,-0.6012 -0.63877,-1.31512 0,-1.3527 0.48848,-2.14177 0.48847,-0.78907 1.65329,-2.17934 -0.41333,0.33818 -1.31512,1.12725 -0.86422,0.78907 -1.2024,1.05209 -0.33817,0.26303 -0.33817,-0.1503 0,-0.26302 0.6012,-0.75149 0.6012,-0.48848 2.59266,-2.47994 2.02904,-1.99146 2.74296,-2.36721 0.7515,-0.37575 1.2024,-0.37575 0.48847,0 0.71392,0.1503 0.22545,0.11272 0.11272,0.26302 z"
         style="stroke-width:0.7;fill:#440055;fill-opacity:1;stroke:#000000;stroke-opacity:1;stroke-miterlimit:4;stroke-dasharray:none"
         id="path18"
         inkscape:connector-curvature="0" />
      <path
         d="m -284.42974,162.44364 q -0.0376,-0.0376 -0.0376,-0.11273 0,-0.0751 0.1503,-0.0751 0.11273,0 0.1503,0.15029 0.67635,1.503 2.21691,1.503 1.91632,0 3.34416,-1.87874 1.0521,-1.39027 1.84117,-2.89326 0.82664,-1.54057 1.35269,-2.44237 0.56362,-0.90179 1.69087,-2.02904 1.16482,-1.12724 2.10419,-1.39026 -0.22545,-0.11273 -0.7515,-0.11273 -0.52605,0 -1.99146,0.78907 -1.42785,0.7515 -2.85569,1.95389 -1.42784,1.16482 -3.08113,2.66781 -1.6533,1.503 -1.99147,1.76602 -0.33817,0.26302 -0.41332,0 -0.0752,-0.26302 0.18787,-0.48847 0.97695,-0.82665 2.81811,-2.55509 1.84117,-1.76602 2.78054,-2.55509 0.97694,-0.82664 2.17934,-1.39026 1.20239,-0.6012 1.80359,-0.6012 1.50299,0 1.84116,0.52605 -0.97694,0.41332 -1.61571,2.17933 -0.6012,1.76602 -1.39027,4.09566 -0.7515,2.32964 -1.91632,3.64476 0.97695,-0.37575 3.00599,-1.72845 2.06661,-1.39026 3.64476,-3.00598 0.33817,-0.3006 0.48847,-0.0752 0,0.0752 0,0.18787 0,0.0752 -0.71392,0.78907 -0.71392,0.71393 -1.76602,1.61572 -1.01452,0.86422 -2.55509,1.95389 -3.19386,2.25449 -6.42529,2.25449 -3.19386,0 -4.09565,-2.74296 z"
         style="stroke-width:0.7;fill:#440055;fill-opacity:1;stroke:#000000;stroke-opacity:1;stroke-miterlimit:4;stroke-dasharray:none"
         id="path20"
         inkscape:connector-curvature="0" />
      <path
         d="m -250.34117,156.99529 q -1.65329,1.91632 -2.70539,3.53203 -1.01452,1.57815 -1.01452,2.25449 0,0.63877 0.7515,0.63877 0.78907,0 3.15628,-1.54056 2.40479,-1.54057 4.43383,-3.45689 0.18787,-0.18787 0.33817,-0.15029 0.1503,0.0376 0.1503,0.18787 0,0.1503 -0.1503,0.33817 -4.84715,4.43383 -7.40223,5.56107 -1.12725,0.4509 -1.61572,0.4509 -1.80359,0 -2.47994,-0.60119 -0.63877,-0.6012 -0.63877,-1.31512 0,-1.42785 0.56362,-2.17934 1.84117,-2.59266 2.93084,-4.39625 0.33817,-0.52605 -0.1503,-0.71393 -0.4509,-0.22544 -1.16482,-0.22544 -0.67635,0 -0.71392,-0.0376 -2.51751,3.38173 -4.99745,5.33562 -0.3006,0.26303 -0.33818,0 0,-0.3006 0.41333,-0.71392 2.63023,-2.25449 4.3211,-4.772 -0.33817,-0.22545 -0.33817,-0.6012 0,-0.41332 0.0376,-0.97694 0.0752,-0.56362 0.6012,-1.50299 0.90179,-1.57815 1.87874,-1.57815 0.82665,0 0.82665,0.9018 0,1.23997 -1.16482,2.70539 -0.56363,0.67634 -1.0521,0.97694 1.39027,-0.4509 4.05808,-0.4509 1.31512,0 1.87874,0.97695 0.0752,0.1503 0.0752,0.4509 0,0.30059 -0.48847,0.90179 z"
         style="stroke-width:0.7;fill:#440055;fill-opacity:1;stroke:#000000;stroke-opacity:1;stroke-miterlimit:4;stroke-dasharray:none"
         id="path22"
         inkscape:connector-curvature="0" />
      <path
         d="m -244.2793,162.96969 q 0,1.01452 1.01452,1.01452 0.6012,0 1.87874,-0.48848 1.31512,-0.48847 3.38174,-2.14176 2.06661,-1.65329 2.78053,-2.36721 0.71392,-0.7515 0.86422,-0.71392 0.1503,0 0.11273,0.22544 -0.0376,0.18788 -0.18788,0.33818 -3.19386,3.26901 -5.29805,4.69685 -2.10418,1.42784 -3.90778,1.42784 -1.54056,0 -2.14176,-0.71392 -0.6012,-0.71392 -0.6012,-1.65329 0,-1.69087 1.2024,-4.05808 -2.17934,2.32964 -2.17934,1.50299 0,-0.1503 0.22545,-0.33817 1.76601,-1.42784 3.79505,-4.13323 3.71991,-4.84715 5.8241,-8.52948 0.37575,-0.71392 0.37575,-1.0521 0,-0.78907 -0.86422,-0.3006 -0.97695,0.48848 -1.0521,0.37575 -0.0752,-0.11272 0.11273,-0.3006 0.90179,-0.67634 2.47993,-1.27754 1.57815,-0.6012 2.59266,-0.63877 1.57815,0 1.57815,0.97694 0,0.56363 -0.56363,1.503 -0.52604,0.93937 -3.1187,3.75748 -2.55509,2.78053 -3.11871,3.49445 -3.87021,5.0726 -4.9223,8.07859 -0.26303,0.78907 -0.26303,1.31512 z"
         style="stroke-width:0.7;fill:#440055;fill-opacity:1;stroke:#000000;stroke-opacity:1;stroke-miterlimit:4;stroke-dasharray:none"
         id="path24"
         inkscape:connector-curvature="0" />
      <path
         d="m -233.19766,162.96969 q 0,1.01452 1.01452,1.01452 0.60119,0 1.87874,-0.48848 1.31512,-0.48847 3.38173,-2.14176 2.06661,-1.65329 2.78054,-2.36721 0.71392,-0.7515 0.86422,-0.71392 0.1503,0 0.11272,0.22544 -0.0376,0.18788 -0.18787,0.33818 -3.19386,3.26901 -5.29805,4.69685 -2.10419,1.42784 -3.90778,1.42784 -1.54057,0 -2.14177,-0.71392 -0.60119,-0.71392 -0.60119,-1.65329 0,-1.69087 1.20239,-4.05808 -2.17934,2.32964 -2.17934,1.50299 0,-0.1503 0.22545,-0.33817 1.76602,-1.42784 3.79506,-4.13323 3.7199,-4.84715 5.82409,-8.52948 0.37575,-0.71392 0.37575,-1.0521 0,-0.78907 -0.86422,-0.3006 -0.97694,0.48848 -1.05209,0.37575 -0.0752,-0.11272 0.11272,-0.3006 0.9018,-0.67634 2.47994,-1.27754 1.57814,-0.6012 2.59266,-0.63877 1.57814,0 1.57814,0.97694 0,0.56363 -0.56362,1.503 -0.52605,0.93937 -3.11871,3.75748 -2.55509,2.78053 -3.11871,3.49445 -3.8702,5.0726 -4.9223,8.07859 -0.26302,0.78907 -0.26302,1.31512 z"
         style="stroke-width:0.7;fill:#440055;fill-opacity:1;stroke:#000000;stroke-opacity:1;stroke-miterlimit:4;stroke-dasharray:none"
         id="path26"
         inkscape:connector-curvature="0" />
      <path
         d="m -218.35855,156.0935 q 0.4509,-0.48848 0.4509,-0.82665 0,-0.33817 -0.4509,-0.33817 -0.4509,0 -1.39027,0.67634 -0.90179,0.67635 -2.74296,2.40479 -1.84117,1.72844 -2.21691,2.02904 -0.33818,0.26303 -0.33818,0 -0.0376,-0.26302 0.4509,-0.63877 0.48847,-0.41332 2.17934,-2.14176 1.69087,-1.72845 2.63024,-2.44237 0.93937,-0.71392 2.14176,-0.71392 1.35269,0 1.84117,1.01452 0.22544,0.37575 0.22544,0.97695 0,0.60119 -0.30059,1.35269 -0.3006,0.71392 -0.71393,1.31512 -0.37574,0.56362 -1.01452,1.39027 -0.60119,0.82664 -1.20239,1.65329 -0.56362,0.82664 -0.56362,1.20239 0,0.37575 0.3006,0.37575 1.46541,0 5.48592,-4.88473 1.91631,-2.29206 3.26901,-4.28352 1.20239,-2.78054 2.10419,-3.04356 0.33817,-0.11273 0.82664,-0.11273 0.48848,0 0.71392,0.41332 0.22545,0.41333 0.22545,0.63878 0,0.22545 -0.33817,0.37574 -0.3006,0.11273 -0.56362,0.11273 -0.22545,-0.0376 -0.3006,-0.0376 -1.08967,0 -1.84117,1.57815 -0.45089,0.97694 -1.16482,3.11871 -0.67634,2.14176 -1.27754,3.94535 -0.6012,1.80359 -1.99146,4.20838 -1.39027,2.40479 -3.38174,4.50898 -1.99146,2.10419 -4.73442,3.53203 -2.70539,1.42784 -5.56107,1.42784 -2.85569,0 -4.77201,-1.31512 -1.95389,-1.31512 -2.40478,-4.05808 0,-0.18787 0.0752,-0.26302 0.0751,-0.0751 0.18787,0 0.11272,0.0752 0.11272,0.22545 0.37575,2.10419 2.02904,3.41931 1.61572,1.31511 3.75749,1.31511 2.81811,0 5.74894,-2.17933 2.96841,-2.14177 5.5235,-5.6738 2.59266,-3.49446 6.08712,-10.25792 -0.86422,1.31511 -2.06662,2.85568 -4.69685,5.78652 -7.21436,5.78652 -1.91632,0 -1.91632,-1.80359 0,-0.63877 0.26303,-1.50299 0.52605,-1.50299 3.83263,-5.33562 z"
         style="stroke-width:0.7;fill:#440055;fill-opacity:1;stroke:#000000;stroke-opacity:1;stroke-miterlimit:4;stroke-dasharray:none"
         id="path28"
         inkscape:connector-curvature="0" />
      <path
         d="m -202.66931,174.80575 q -3.26901,0 -5.41077,-1.42784 -2.17934,-1.42784 -2.17934,-4.05808 0,-0.1503 0.11273,-0.1503 0.26302,0 0.33817,0.3006 0.33817,1.91631 1.84116,3.30658 0.67635,0.63877 1.87874,1.0521 1.16482,0.41332 1.95389,0.41332 0.78908,0 1.01452,0 4.17081,-0.22545 7.28952,-4.20838 1.46542,-1.87874 2.59266,-3.75748 1.12724,-1.84117 2.44236,-4.13323 1.31512,-2.29206 2.21692,-3.49446 -1.16482,1.31512 -2.93084,3.00599 -1.76602,1.69086 -3.04356,2.44236 -1.27754,0.7515 -2.36721,0.7515 -1.08967,0 -1.87874,-0.63877 -0.7515,-0.67635 -0.7515,-1.6533 0,-2.78053 2.47994,-5.44834 1.87874,-1.99147 4.65928,-2.81811 1.23996,-0.41333 2.40478,-0.41333 1.2024,0 2.29207,0.67635 1.12724,0.63877 1.42784,1.54057 0.6012,0 1.31512,0.52604 0.71392,0.48848 0.71392,0.71393 0,0.22544 -0.3006,0.37574 -1.20239,0.6012 -3.79506,5.26048 -2.51751,4.4714 -5.89924,8.00343 -1.69087,1.76602 -3.94536,2.78054 -2.21691,1.05209 -4.4714,1.05209 z m 5.8241,-11.79849 q 0,0.86422 0.90179,0.86422 0.71392,0 1.76602,-0.78907 2.55509,-1.69087 5.33562,-4.9223 1.27755,-1.46542 1.27755,-2.29206 0,-0.3006 -0.22545,-0.52605 -0.18788,-0.26302 -0.86422,-0.26302 -0.67635,0 -2.17934,0.78907 -1.46542,0.78907 -3.04356,2.40479 -1.54057,1.57814 -2.25449,2.85568 -0.71392,1.23997 -0.71392,1.87874 z"
         style="stroke-width:0.7;fill:#440055;fill-opacity:1;stroke:#000000;stroke-opacity:1;stroke-miterlimit:4;stroke-dasharray:none"
         id="path30"
         inkscape:connector-curvature="0" />
      <path
         d="m -173.43023,156.99529 q -1.65329,1.91632 -2.70539,3.53203 -1.01452,1.57815 -1.01452,2.25449 0,0.63877 0.7515,0.63877 0.78907,0 3.15628,-1.54056 2.40479,-1.54057 4.43383,-3.45689 0.18787,-0.18787 0.33817,-0.15029 0.1503,0.0376 0.1503,0.18787 0,0.1503 -0.1503,0.33817 -4.84715,4.43383 -7.40224,5.56107 -1.12724,0.4509 -1.61571,0.4509 -1.80359,0 -2.47994,-0.60119 -0.63877,-0.6012 -0.63877,-1.31512 0,-1.42785 0.56362,-2.17934 1.84117,-2.59266 2.93084,-4.39625 0.33817,-0.52605 -0.1503,-0.71393 -0.4509,-0.22544 -1.16482,-0.22544 -0.67635,0 -0.71392,-0.0376 -2.51752,3.38173 -4.99745,5.33562 -0.3006,0.26303 -0.33818,0 0,-0.3006 0.41333,-0.71392 2.63023,-2.25449 4.3211,-4.772 -0.33817,-0.22545 -0.33817,-0.6012 0,-0.41332 0.0376,-0.97694 0.0751,-0.56362 0.6012,-1.50299 0.90179,-1.57815 1.87874,-1.57815 0.82664,0 0.82664,0.9018 0,1.23997 -1.16482,2.70539 -0.56362,0.67634 -1.05209,0.97694 1.39027,-0.4509 4.05808,-0.4509 1.31512,0 1.87874,0.97695 0.0752,0.1503 0.0752,0.4509 0,0.30059 -0.48847,0.90179 z"
         style="stroke-width:0.7;fill:#440055;fill-opacity:1;stroke:#000000;stroke-opacity:1;stroke-miterlimit:4;stroke-dasharray:none"
         id="path32"
         inkscape:connector-curvature="0" />
      <path
         d="m -161.43154,158.64858 q 1.99147,-1.08967 1.99147,-2.21691 0,-1.12724 -1.3527,-1.12724 -0.63877,0 -1.35269,0.33817 -1.57814,0.71392 -3.04356,2.47994 -1.80359,2.17934 -1.80359,4.05808 0,0.71392 0.37575,1.35269 0.41332,0.6012 1.42784,0.6012 1.76602,0 4.4714,-1.84117 2.70539,-1.87874 4.65928,-3.75748 0.4509,-0.4509 0.4509,-0.0376 0,0.26303 -0.22545,0.4509 -1.39027,1.27755 -1.87874,1.72844 -0.4509,0.41333 -1.84117,1.54057 -1.39027,1.08967 -2.25449,1.54057 -2.66781,1.39027 -4.54655,1.39027 -1.84117,0 -2.93083,-0.82665 -1.0521,-0.86422 -1.0521,-2.36721 0,-3.19386 2.85569,-5.48593 2.85568,-2.32963 5.97439,-2.32963 2.10419,0 2.81811,0.90179 0.3006,0.4509 0.3006,0.97695 0,0.48847 -0.33817,1.08967 -0.67635,1.16482 -2.55509,2.06661 -1.84117,0.86422 -3.49446,0.86422 -0.63877,0 -0.71392,-0.11272 -0.0376,-0.11273 0.11273,-0.1503 0.15029,-0.0752 0.41332,-0.0752 1.50299,0 3.53203,-1.0521 z"
         style="stroke-width:0.7;fill:#440055;fill-opacity:1;stroke:#000000;stroke-opacity:1;stroke-miterlimit:4;stroke-dasharray:none"
         id="path34"
         inkscape:connector-curvature="0" />
      <path
         d="m -143.55356,158.72373 q -0.41332,0.48848 -0.86422,1.0521 -0.41332,0.56362 -1.08967,1.54057 -0.63877,0.97694 -0.63877,1.65329 0,0.67634 0.56362,0.67634 0.6012,0 1.91632,-0.71392 2.63023,-1.50299 5.82409,-4.50898 0.37575,-0.37574 0.48848,-0.11272 0,0.0376 0,0.1503 0,0.11272 -0.1503,0.26302 -6.46287,6.08712 -9.39371,6.08712 -0.86422,0 -1.46541,-0.56362 -0.56363,-0.6012 -0.56363,-1.39027 0,-0.78907 0.67635,-2.40479 -1.69087,2.10419 -3.64476,3.26901 -1.91631,1.12725 -3.00598,1.12725 -1.08967,0 -1.87874,-0.63877 -0.7515,-0.67635 -0.7515,-1.6533 0,-2.78053 2.47994,-5.44834 1.87874,-1.99147 4.65928,-2.81811 1.23997,-0.41333 2.40478,-0.41333 1.2024,0 2.29207,0.67635 1.12724,0.63877 1.42784,1.54057 1.12724,0 1.61572,0.82664 0.0752,0.11273 0.0752,0.37575 0,0.26302 -0.3006,0.6012 -0.26303,0.33817 -0.67635,0.82664 z m -2.74296,-3.7199 q -0.78907,0 -1.87874,0.48847 -1.91632,0.82665 -3.64476,2.85569 -2.74296,3.23143 -2.74296,4.73442 0,0.78907 0.63877,0.78907 0.52605,0 1.72845,-0.67634 1.23996,-0.67635 3.23143,-2.66782 0.11272,-0.11272 0.86422,-0.82664 0.7515,-0.71392 1.27754,-1.23997 1.76602,-1.84117 1.76602,-2.63024 0,-0.82664 -1.23997,-0.82664 z"
         style="stroke-width:0.7;fill:#440055;fill-opacity:1;stroke:#000000;stroke-opacity:1;stroke-miterlimit:4;stroke-dasharray:none"
         id="path36"
         inkscape:connector-curvature="0" />
      <path
         d="m -132.49072,151.62209 q 0.82665,-1.23996 1.31512,-1.95389 0.52605,-0.75149 0.82665,-1.08967 0.3006,-0.33817 1.35269,-0.56362 1.0521,-0.26302 2.02904,-0.26302 0.97695,0 0.97695,0.22545 0,0.18787 -1.61572,1.72844 -1.61572,1.54057 -3.75748,4.09565 2.55509,0.41333 3.34416,1.61572 0.3006,0.52605 0.0751,0.67635 -0.18788,0.1503 -0.4509,-0.11273 -0.78907,-0.78907 -2.51751,-0.78907 -0.7515,0 -1.69087,0.1503 -3.04356,3.90778 -3.83263,6.38772 -0.26302,0.71392 -0.26302,1.20239 0,1.31512 1.08967,1.31512 1.16481,0 3.269,-1.61572 2.74297,-2.06661 4.77201,-4.09565 0.37574,-0.41332 0.48847,-0.18787 0.11272,0.22544 -0.18788,0.48847 -3.23143,3.38173 -5.44834,4.99745 -2.17934,1.57814 -4.02051,1.57814 -2.51751,0 -2.51751,-2.66781 0,-1.27755 0.71392,-3.04356 l -0.67635,0.63877 q -0.30059,0.3006 -0.41332,0.18787 -0.1503,-0.1503 -0.1503,-0.26302 0,-0.11272 0.3006,-0.37575 2.74296,-2.40479 3.75748,-3.64475 -0.71392,0.26302 -0.97694,0.0376 -0.22545,-0.22545 -0.33818,-0.6012 -0.0751,-0.37574 0.37575,-0.90179 0.48847,-0.56362 1.39027,-0.78907 0.93937,-0.26303 1.39027,-0.3006 0.56362,-0.82665 1.39026,-2.06662 z"
         style="stroke-width:0.7;fill:#440055;fill-opacity:1;stroke:#000000;stroke-opacity:1;stroke-miterlimit:4;stroke-dasharray:none"
         id="path38"
         inkscape:connector-curvature="0" />
    </g>
  </g>
</svg>
