<?xml version="1.0" encoding="UTF-8" standalone="no"?>
<svg
   xmlns:dc="http://purl.org/dc/elements/1.1/"
   xmlns:cc="http://creativecommons.org/ns#"
   xmlns:rdf="http://www.w3.org/1999/02/22-rdf-syntax-ns#"
   xmlns:svg="http://www.w3.org/2000/svg"
   xmlns="http://www.w3.org/2000/svg"
   xmlns:sodipodi="http://sodipodi.sourceforge.net/DTD/sodipodi-0.dtd"
   xmlns:inkscape="http://www.inkscape.org/namespaces/inkscape"
   version="1.1"
   id="Layer_1"
   x="0px"
   y="0px"
   viewBox="0 0 1736.202 1736.088"
   enable-background="new 0 0 1736.202 1736.088"
   xml:space="preserve"
   sodipodi:docname="corner-filigree.svg"
   inkscape:version="0.92.4 (5da689c313, 2019-01-14)"><metadata
   id="metadata25"><rdf:RDF><cc:Work
       rdf:about=""><dc:format>image/svg+xml</dc:format><dc:type
         rdf:resource="http://purl.org/dc/dcmitype/StillImage" /></cc:Work></rdf:RDF></metadata><defs
   id="defs23" /><sodipodi:namedview
   pagecolor="#ffffff"
   bordercolor="#666666"
   borderopacity="1"
   objecttolerance="10"
   gridtolerance="10"
   guidetolerance="10"
   inkscape:pageopacity="0"
   inkscape:pageshadow="2"
   inkscape:window-width="1920"
   inkscape:window-height="1001"
   id="namedview21"
   showgrid="false"
   inkscape:zoom="0.27187562"
   inkscape:cx="735.72119"
   inkscape:cy="871.26449"
   inkscape:window-x="-9"
   inkscape:window-y="-9"
   inkscape:window-maximized="1"
   inkscape:current-layer="Layer_1" />
<g
   id="g18"
   style="fill:#4d4d4d;fill-opacity:1;stroke:#000000;stroke-opacity:1;stroke-width:8;stroke-miterlimit:4;stroke-dasharray:none">
	<path
   d="M196.592,69.479c161.167-24.044,287.917,185.62,192.313,449.829c-88.784,237.719-291.998,398.718-281.524,618.496   c12.431,86.131,51.499,156.35,126.496,192.852c44.284,21.32,100.897,26.863,136.097,21.117   c15.327-74.016,69.197-129.266,148.346-145.604c26.678-170.406-136.427-194.823-197.292-137.443   c-48.962,41.41-41.07,123.685-6.983,153.543c44.235,36.466,87.862-13.944,105.656,9.106c20.498,27.755-70.838,53.769-118.781-8.502   c-47.226-62.106-26.017-174.193,77.986-190.457c58.469-8.945,114.785,16.857,139.586,69.4   c22.123,45.997,13.428,95.329,13.828,102.083c32.231-2.316,68.516-4.186,105.963,15.416   c72.595,37.919,84.371,132.283,45.486,189.928c-43.926,65.341-140.155,62.242-184.533,12.283   c-36.1-39.832-27.058-103.393-3.865-107.844c5.802-0.917,14.227,2.675,16.064,14.115c0.931,8.419-6.672,26.72-9.255,40.087   c-19.881,94.61,141.309,116.534,183.197,18.01c25.069-59.981,3.96-141.883-73.978-164.802   c-33.253-10.482-75.623-5.277-81.832-3.345c-11.868,60.159-45.036,105.137-103.597,134.731   c-42.194,19.527-43.417,4.794-43.081,29.481c-7.91,89.468,37.515,185.732,141.868,228.673   c34.322,13.195,67.82,18.796,87.033,18.796c7.001,0.119,35.841,0.447,43.066-1.148c-2.331,0.144-4.657,0.411-6.993,0.446   c178.916-24.629,310.908-155.457,479.008-241.986c173.681-89.467,274.746-70.8,295.609-72.646   c-1.386,0.134-2.771,0.228-4.137,0.406c299.818,22.151,301.61,291.305,157.942,338.244c-37.979,11.949-77.755,6.97-100.885-4.825   c-39.271-19.044-57.76-62.763-56.765-93.942c-1.686-83.054,85.072-123.788,138.592-93.125   c31.973,17.885,40.541,44.708,35.172,61.333c-3.989,11.601-16.699,11.317-22.102,4.231c-16.214-20.907,2.623-49.554-22.795-66.886   c-9.027-6.476-50.609-12.44-88.622,18.514c-31.273,27.744-37.797,69.79-25.057,105.913c30.838,88.448,156.796,77.221,194.599,7.344   c35.282-62.837,24.943-230.779-245.475-187.819c-54.359,8.897-107.557,25.551-113.05,27.774c1.351,1.237,3.256,0.44,4.894,0.416   c156.708-10.528,153.564,170.412,52.628,168.102c-52.995,0.997-87.758-59.715-59.724-98.678   c9.6-14.098,28.032-22.293,44.041-14.337c-3.622,0.901-17.128-0.315-25.918,13.209c-18.817,27.794,4.701,57.94,26.69,62.719   c12.529,3.132,27.918-2.234,33.247-7.216c10.092-9.021,12.83-27.294,9.69-39.627c-8.304-39.816-62.243-47.741-90.116-43.096   c-74.806,5.317-206.192,66.477-332.092,114.98c-161.063,61.916-210.239,59.971-232.311,64.614   c-155.892,30.58-352.813-61.902-334.196-282.786c-1.669-0.037-20.283,1.371-20.702,1.44   c-136.644,3.634-229.857-80.669-259.115-201.959c-56.852-230.39,195.879-594.555,176.387-725.612   c-4.538-65.874-55.838-71.765-77.764-57.497c-19.81,13.358-20.846,57.472,19.771,70.276c14.011,3.331,30.243-1.856,38.657-13.818   c3.717-5.177,4.474-11.67,4.969-17.841c15.82,24.252-20.906,66.052-64.045,50.732c-64.657-20.438-66.364-115.827,2.603-134.746   c49.303-13.925,112.861,17.106,116.821,100.41c1.095,8.178-0.542,17.419-0.045,24.933c0.257-0.371,0.782-1.104,1.039-1.475   c40.35-127.354,64.526-310.021-46.328-360.168c-54.305-25.216-159.136-13.65-169.508,96.174   c-3.056,123.17,133.621,133.783,175.551,66.915c15.833-24.154,20.275-52.4,13.511-74.819c-10.519-23.84-37.146-17.26-47.525-19.311   c-36.907-4.095-32.02-31.075-8.21-30.946c32.471-0.986,59.734,37.189,61.907,69.608c7.466,102.36-121.897,139.58-182.791,69.885   c-39.755-44.97-35.973-143.189,29.996-188.463C150.987,79.976,173.619,72.334,196.592,69.479 M387.712,1348.448   c39.008-7.448,85.847-35.828,111.828-86.009c8.426-15.965,15.343-36.858,15.169-41.463   C484.165,1224.37,407.139,1261.812,387.712,1348.448z"
   id="path2"
   style="fill:#4d4d4d;fill-opacity:1;stroke:#000000;stroke-opacity:1;stroke-width:8;stroke-miterlimit:4;stroke-dasharray:none" />
	<path
   d="M554.711,926.922c-1.663,90.309-85.558,99.696-123.23,66.98c-35.59-31.151-22.889-86.805,19.395-95.496   c32.301-7.956,58.467,21.857,51.974,40.542c-2.477,6.713-10.746,5.781-13.827-0.965c-3.012-5.62,0.322-18.373-2.103-27.002   c-5.215-16.66-63.96-16.012-69.276,30.807c-2.416,68.383,90.967,81.115,118.424,23.879   c40.711-88.967-91.508-168.347-223.576-121.438c-216.845,75.982-247.194,421.004-53.791,473.183   c38.446,10.585,67.84,6.001,70.805,6.404c-4.423,2.512-105.923,20.563-169.77-62.58   c-105.146-138.531-19.78-394.174,173.131-438.912C440.879,796.573,550.008,847.475,554.711,926.922z"
   id="path4"
   style="fill:#4d4d4d;fill-opacity:1;stroke:#000000;stroke-opacity:1;stroke-width:8;stroke-miterlimit:4;stroke-dasharray:none" />
	<path
   d="M888.699,1231.641c78.817,118.697,12.744,322.223-182.331,377.583c-58.191,16.485-96.096,10.931-111.273,11.343   c0.985-0.104,1.965-0.302,2.969-0.292c-4.813-1.097-97.377-4.414-151.657-72.043c-44.116-57.367-39.832-124.746-34.42-140.982   c1.105,11.542-6.572,64.643,27.62,116.445c58.639,87.7,185.036,99.975,281.924,63.906   c217.256-80.326,220.81-321.303,122.517-383.087c-35.683-21.279-75.506-11.575-95.486,12.105   c-18.578,18.912-20.349,63.5,3.652,86.563c16.591,16.841,41.891,19.864,60.472,9.146c22.343-12.671,28.22-43.392,17.158-60.442   c-5.656-9.521-36.446,3.741-37.182-12.679c0.243-14.329,42.828-7.598,46.199,32.797c3.752,17.644-14.151,51.075-47.421,52.751   c-19.989,3.479-53.844-11.376-63.298-47.268C705.135,1184.918,828.245,1138.892,888.699,1231.641z"
   id="path6"
   style="fill:#4d4d4d;fill-opacity:1;stroke:#000000;stroke-opacity:1;stroke-width:8;stroke-miterlimit:4;stroke-dasharray:none" />
	<path
   d="M191.92,1340.589c24.174,33.923,90.275,43.444,131.767,45.803c-1.163,0.51-2.41,0.045-3.578,0.411   c2.168,0.099,4.355,0.223,6.439,0.891c-10.041,4.786-159.294,49.173-246.826-1.569c4.676-1.72,41.045-9.661,77.328-25.913   C179.544,1350.319,188.948,1342.047,191.92,1340.589z"
   id="path8"
   style="fill:#4d4d4d;fill-opacity:1;stroke:#000000;stroke-opacity:1;stroke-width:8;stroke-miterlimit:4;stroke-dasharray:none" />
	<path
   d="M332.467,1396.878c0,0-236.217,236.163-242.669,242.61c7.748-31.071,9.928-54.984,9.591-60.328   c0.663,3.301-0.025,6.627-0.168,9.948c2.257-12.706,6.345-96.688-31.164-180.416   C157.119,1433.886,258.25,1425.533,332.467,1396.878z"
   id="path10"
   style="fill:#4d4d4d;fill-opacity:1;stroke:#000000;stroke-opacity:1;stroke-width:8;stroke-miterlimit:4;stroke-dasharray:none" />
	<path
   d="M412.69,1402.357c0.46,1.421,0.48,2.95,0,4.39C412.492,1405.277,412.512,1403.802,412.69,1402.357z"
   id="path12"
   style="fill:#4d4d4d;fill-opacity:1;stroke:#000000;stroke-opacity:1;stroke-width:8;stroke-miterlimit:4;stroke-dasharray:none" />
	<path
   d="M339.034,1404.005c-29.54,79.953-36.055,178.22-11.358,264.029c-62.951-30.789-157.765-42.866-230.688-21.79   C98.583,1643.826,337.528,1405.126,339.034,1404.005z"
   id="path14"
   style="fill:#4d4d4d;fill-opacity:1;stroke:#000000;stroke-opacity:1;stroke-width:8;stroke-miterlimit:4;stroke-dasharray:none" />
	<path
   d="M349.08,1407.395c3.241,43.519,11.138,111.462,46.699,136.563c-22.312,33.828-36.676,74.382-45.179,111.763   c-0.361-0.069-0.718-0.114-1.074-0.144c-19.208-38.236-30.201-84.884-20.924-152.459   C334.351,1454.666,346.767,1411.952,349.08,1407.395z"
   id="path16"
   style="fill:#4d4d4d;fill-opacity:1;stroke:#000000;stroke-opacity:1;stroke-width:8;stroke-miterlimit:4;stroke-dasharray:none" />
</g>
</svg>